<?xml version="1.0" encoding="utf-8"?>
<svg viewBox="21.054 -5.269 91.888 91.886" width="91.888" height="91.886" xmlns="http://www.w3.org/2000/svg">
  <path d="M 111.209 36.581 L 71.09 -3.536 C 68.78 -5.847 65.033 -5.847 62.721 -3.536 L 54.391 4.796 L 64.958 15.363 C 67.414 14.533 70.23 15.09 72.187 17.048 C 74.156 19.018 74.708 21.858 73.857 24.323 L 84.043 34.508 C 86.508 33.658 89.35 34.208 91.318 36.179 C 94.068 38.929 94.068 43.385 91.318 46.137 C 88.566 48.888 84.11 48.888 81.357 46.137 C 79.289 44.067 78.777 41.027 79.826 38.479 L 70.326 28.98 L 70.326 53.977 C 70.996 54.309 71.629 54.751 72.187 55.309 C 74.937 58.059 74.937 62.515 72.187 65.268 C 69.437 68.017 64.978 68.017 62.23 65.268 C 59.48 62.514 59.48 58.058 62.23 55.309 C 62.91 54.63 63.697 54.116 64.537 53.772 L 64.537 28.542 C 63.697 28.198 62.912 27.689 62.23 27.005 C 60.147 24.923 59.646 21.865 60.714 19.307 L 50.297 8.888 L 22.787 36.395 C 20.476 38.708 20.476 42.455 22.787 44.766 L 62.908 84.884 C 65.218 87.195 68.964 87.195 71.277 84.884 L 111.209 44.952 C 113.52 42.641 113.52 38.892 111.209 36.581 Z" data-darkreader-inline-fill="" style="--darkreader-inline-fill: #b3402a; fill: rgb(94, 129, 172);"/>
</svg>